Coordinates
version=1
nRows=13
nColumns=38
inDegrees=no

Units are S.I. units (second, meters, Newtons, ...)
If the header above contains a line with 'inDegrees', this indicates whether rotational values are in degrees (yes) or radians (no).

endheader
time	pelvis_tilt	pelvis_list	pelvis_rotation	pelvis_tx	pelvis_ty	pelvis_tz	hip_flexion_r	hip_adduction_r	hip_rotation_r	knee_angle_r	ankle_angle_r	subtalar_angle_r	mtp_angle_r	hip_flexion_l	hip_adduction_l	hip_rotation_l	knee_angle_l	ankle_angle_l	subtalar_angle_l	mtp_angle_l	lumbar_extension	lumbar_bending	lumbar_rotation	arm_flex_r	arm_add_r	arm_rot_r	elbow_flex_r	pro_sup_r	wrist_flex_r	wrist_dev_r	arm_flex_l	arm_add_l	arm_rot_l	elbow_flex_l	pro_sup_l	wrist_flex_l	wrist_dev_l
0	-0.166849	0.00409773	-3.03912	-0.333079	0.972771	0.00591687	0.317652	-0.125808	-0.347718	0.527914	0.0701477	0	0	-0.320129	0.0349782	0.123391	0.0768866	0.234401	0	0	-0.39482	0.120136	-0.159993	0.119339	-0.43714	1.53823	0.360741	-9.98419e-06	0	0	0.700375	-0.364082	1.42616	0.655576	0.403559	0	0
0.00999087	-0.168587	0.00625895	-3.04195	-0.332865	0.970391	0.00490846	0.314971	-0.114188	-0.327905	0.468874	0.0806331	0	0	-0.333649	0.0313447	0.117063	0.0844155	0.250149	0	0	-0.396662	0.122402	-0.164878	0.114212	-0.439923	1.54135	0.35579	-1.09246e-05	0	0	0.709605	-0.374232	1.40393	0.669438	0.420186	0	0
0.0199817	-0.170262	0.00836891	-3.04484	-0.332658	0.968003	0.00387756	0.312416	-0.10263	-0.307882	0.41044	0.0912348	0	0	-0.347046	0.0277725	0.110636	0.092085	0.265868	0	0	-0.398413	0.124549	-0.170182	0.109513	-0.442562	1.54481	0.35086	-1.17656e-05	0	0	0.718292	-0.384866	1.38077	0.683673	0.437305	0	0
0.0299726	-0.171821	0.0103904	-3.04792	-0.332474	0.965602	0.00279677	0.310158	-0.0912069	-0.287425	0.353678	0.102036	0	0	-0.3602	0.0243204	0.103973	0.100082	0.28148	0	0	-0.399995	0.126457	-0.175946	0.105436	-0.444958	1.54871	0.346012	-1.22988e-05	0	0	0.726129	-0.396102	1.35647	0.698311	0.455007	0	0
0.0399635	-0.173236	0.0122953	-3.0513	-0.332326	0.963181	0.00163855	0.308396	-0.0800143	-0.266409	0.299978	0.112983	0	0	-0.373013	0.0210471	0.0969352	0.108608	0.296851	0	0	-0.401362	0.128017	-0.181807	0.101885	-0.447077	1.55293	0.34134	-1.21986e-05	0	0	0.733154	-0.40762	1.33174	0.712988	0.472815	0	0
0.0499543	-0.174508	0.014064	-3.05515	-0.332228	0.960739	0.00037719	0.30734	-0.0691558	-0.244873	0.250895	0.123828	0	0	-0.385415	0.0180068	0.0893955	0.117859	0.311798	0	0	-0.402521	0.129166	-0.18697	0.0984253	-0.448965	1.55694	0.336964	-1.1017e-05	0	0	0.739802	-0.418645	1.30817	0.726947	0.489631	0	0
0.0599452	-0.175649	0.0156492	-3.05959	-0.332186	0.958279	-0.00101572	0.307213	-0.0587601	-0.223011	0.208007	0.134121	0	0	-0.39735	0.0152738	0.081266	0.128012	0.326086	0	0	-0.40351	0.129806	-0.190918	0.0948524	-0.450616	1.56042	0.332987	-8.18424e-06	0	0	0.74629	-0.428721	1.28674	0.739744	0.504698	0	0
0.0699361	-0.176675	0.0169789	-3.06472	-0.332207	0.955806	-0.00256851	0.308236	-0.0489706	-0.201169	0.172778	0.143253	0	0	-0.40876	0.0129325	0.0725132	0.139227	0.339431	0	0	-0.404372	0.129816	-0.193377	0.0911229	-0.45198	1.56317	0.32948	-3.02104e-06	0	0	0.752661	-0.437648	1.26796	0.751189	0.517574	0	0
0.0799269	-0.177598	0.0179762	-3.0706	-0.332296	0.953328	-0.00430531	0.310599	-0.0399203	-0.179808	0.146421	0.150507	0	0	-0.419585	0.011048	0.0631572	0.15165	0.351518	0	0	-0.405143	0.129086	-0.194267	0.0872921	-0.452986	1.56509	0.32649	5.23358e-06	0	0	0.758832	-0.445406	1.25198	0.761273	0.528075	0	0
0.0899178	-0.178426	0.0185936	-3.07719	-0.332463	0.950859	-0.00624051	0.314418	-0.0316993	-0.159457	0.129738	0.155112	0	0	-0.429749	0.00961924	0.0532672	0.165425	0.362002	0	0	-0.405837	0.127571	-0.193664	0.0834609	-0.453556	1.56617	0.324047	1.73707e-05	0	0	0.764631	-0.452075	1.23869	0.770101	0.536232	0	0
0.0999087	-0.179162	0.0188556	-3.0843	-0.332728	0.948416	-0.00837081	0.319686	-0.0243304	-0.140692	0.122981	0.156291	0	0	-0.439148	0.00851888	0.0429711	0.180711	0.370512	0	0	-0.40644	0.125365	-0.191784	0.0797302	-0.453631	1.56645	0.322161	3.41291e-05	0	0	0.769815	-0.457759	1.2278	0.777818	0.542238	0	0
0.1099	-0.179804	0.0188985	-3.09153	-0.333125	0.946025	-0.0106636	0.326204	-0.0177687	-0.124151	0.125748	0.153356	0	0	-0.447647	0.00742242	0.0324979	0.197695	0.376653	0	0	-0.406888	0.122792	-0.189001	0.0761608	-0.453189	1.56601	0.320815	5.60748e-05	0	0	0.774074	-0.462524	1.21888	0.784555	0.546422	0	0
0.11989	-0.180338	0.0189893	-3.09817	-0.333709	0.943722	-0.0130431	0.333566	-0.0119378	-0.110602	0.136983	0.145858	0	0	-0.455051	0.00575401	0.0222703	0.216606	0.38001	0	0	-0.407035	0.120475	-0.185916	0.0727325	-0.452259	1.56498	0.319948	8.34334e-05	0	0	0.777018	-0.466344	1.21143	0.790378	0.549204	0	0
